<?xml version="1.0" encoding="utf-8"?>
<!-- Generator: Adobe Illustrator 19.1.0, SVG Export Plug-In . SVG Version: 6.00 Build 0)  -->
<svg version="1.1"
	 id="Layer_1" xmlns:rdf="http://www.w3.org/1999/02/22-rdf-syntax-ns#" xmlns:svg="http://www.w3.org/2000/svg" xmlns:sodipodi="http://sodipodi.sourceforge.net/DTD/sodipodi-0.dtd" xmlns:inkscape="http://www.inkscape.org/namespaces/inkscape" xmlns:cc="http://creativecommons.org/ns#" xmlns:dc="http://purl.org/dc/elements/1.1/"
	 xmlns="http://www.w3.org/2000/svg" xmlns:xlink="http://www.w3.org/1999/xlink" x="0px" y="0px" width="100px" height="125px"
	 viewBox="-255 334 100 125" style="enable-background:new -255 334 100 125;" xml:space="preserve">
<style type="text/css">
	.st0{fill:#FFFFFF;}
</style>
<g transform="matrix(1.1250093,0,0,1.1250093,-253.75251,-667.03838)">
	<path class="st0" d="M56.2,894.2c-5.2,0-9.5,2.2-9.5,4.8c0,2.5,3.7,4.6,8.5,4.8v11.9c-2.5-0.1-4.5-0.5-6.6-1.7
		c1.5,3.1,2.9,7.2,4.3,10.4c0.9,2.1,5.9,1.7,6.5-0.1l3.9-9.5l2.3-15.5c0-0.2,0-0.4,0-0.6C65.5,896.3,61.3,894.2,56.2,894.2
		L56.2,894.2z M56.2,895.5c3.7,0,6.7,1.3,6.7,2.9s-3,2.9-6.7,2.9c-3.7,0-6.7-1.3-6.7-2.9C49.5,896.8,52.5,895.5,56.2,895.5z
		 M51.5,916.9c1.9,0.6,3.6,1,6.9,0.4l-1.5,7c-1.1,0.3-2,0.2-2.6-0.4L51.5,916.9L51.5,916.9z M55,928.8v14.2v1.5v0.6
		c7.8,0.5,14.6,1.6,19.6,3c8.2,2.5,6.6,6.3,0,6.9c-8.8,0.4-16.5,1.5-22.1,3.1c-13.1,4-46,9.8-46-4c0-8.1,14.6-9.1,36.6-9.4
		c0.7,0,1.3,0,2,0c2.5,0,4.9,0.1,7.3,0.2v-2.1c-2.3-0.1-4.7-0.2-7.1-0.2c-0.7,0-1.4,0-2.1,0c-23.5,0.3-39.1,1.5-39.1,11v10.5
		c0,16.2,35.2,9.3,49.2,4.7c6-1.9,14.3-3.2,23.7-3.7c3.9-0.4,6.2-1.9,6-3.7l0-9.9c0.3-1.6-1.5-3.5-5.9-4.9c-5-1.6-11.7-2.8-19.4-3.5
		v-14.4c-0.3,0.2-0.7,0.3-1.2,0.3C55.7,929.1,55.3,928.9,55,928.8L55,928.8z M19.7,950.4c-4.5,0-8.1,1.6-8.1,3.6
		c0,2,3.6,3.6,8.1,3.6c4.5,0,8.1-1.6,8.1-3.6C27.8,952,24.1,950.4,19.7,950.4z"/>
</g>
</svg>
